<?xml version="1.0" encoding="UTF-8"?>
<!DOCTYPE svg PUBLIC "-//W3C//DTD SVG 1.1//EN" "http://www.w3.org/Graphics/SVG/1.1/DTD/svg11.dtd">
<svg xmlns="http://www.w3.org/2000/svg" version="1.1" width="2000px" height="439px" style="shape-rendering:geometricPrecision; text-rendering:geometricPrecision; image-rendering:optimizeQuality; fill-rule:evenodd; clip-rule:evenodd" xmlns:xlink="http://www.w3.org/1999/xlink">
<g><path style="opacity:0.971" fill="#000000" d="M 447.5,-0.5 C 449.833,-0.5 452.167,-0.5 454.5,-0.5C 459.668,3.15536 462.835,8.15536 464,14.5C 464.667,150.833 464.667,287.167 464,423.5C 462.821,429.879 459.655,434.879 454.5,438.5C 452.167,438.5 449.833,438.5 447.5,438.5C 442.428,435.739 439.261,431.405 438,425.5C 437.333,287.833 437.333,150.167 438,12.5C 439.261,6.59478 442.428,2.26145 447.5,-0.5 Z"/></g>
<g><path style="opacity:0.934" fill="#000000" d="M 919.5,0.5 C 938.028,-1.11743 945.528,7.2159 942,25.5C 940.99,29.8429 938.49,33.0096 934.5,35C 912.158,39.657 903.658,30.8237 909,8.5C 911.271,4.04449 914.771,1.37783 919.5,0.5 Z"/></g>
<g><path style="opacity:0.952" fill="#000000" d="M 1135.5,2.5 C 1145.17,2.5 1154.83,2.5 1164.5,2.5C 1164.5,45.5 1164.5,88.5 1164.5,131.5C 1169.51,131.666 1174.51,131.499 1179.5,131C 1200.17,108.667 1220.83,86.3333 1241.5,64C 1253.18,63.1675 1264.85,63.3341 1276.5,64.5C 1252.17,90.5 1227.83,116.5 1203.5,142.5C 1228.83,172.5 1254.17,202.5 1279.5,232.5C 1267.85,233.666 1256.18,233.833 1244.5,233C 1222.5,207 1200.5,181 1178.5,155C 1173.85,154.501 1169.18,154.334 1164.5,154.5C 1164.5,180.833 1164.5,207.167 1164.5,233.5C 1154.83,233.5 1145.17,233.5 1135.5,233.5C 1135.5,156.5 1135.5,79.5 1135.5,2.5 Z"/></g>
<g><path style="opacity:0.957" fill="#000000" d="M 1307.5,2.5 C 1317.17,2.5 1326.83,2.5 1336.5,2.5C 1336.5,79.5 1336.5,156.5 1336.5,233.5C 1326.83,233.5 1317.17,233.5 1307.5,233.5C 1307.5,156.5 1307.5,79.5 1307.5,2.5 Z"/></g>
<g><path style="opacity:0.957" fill="#000000" d="M 1443.5,58.5 C 1463.03,57.629 1480.7,62.7957 1496.5,74C 1509.14,86.1119 1516.3,100.945 1518,118.5C 1518.65,132.513 1518.48,146.513 1517.5,160.5C 1479.83,160.5 1442.17,160.5 1404.5,160.5C 1401.68,188.145 1413.68,204.978 1440.5,211C 1467.09,215.148 1491.93,210.314 1515,196.5C 1515.14,204.875 1514.48,213.208 1513,221.5C 1494.76,232.519 1474.93,237.852 1453.5,237.5C 1433.46,238.077 1415.13,232.91 1398.5,222C 1385.12,210.214 1377.62,195.381 1376,177.5C 1375.33,158.167 1375.33,138.833 1376,119.5C 1381.3,80.0309 1403.8,59.6976 1443.5,58.5 Z M 1441.5,82.5 C 1456.98,80.9843 1470.14,85.651 1481,96.5C 1489.19,109.256 1492.35,123.256 1490.5,138.5C 1461.5,138.5 1432.5,138.5 1403.5,138.5C 1403.76,130.109 1404.6,121.776 1406,113.5C 1410.89,95.1033 1422.72,84.77 1441.5,82.5 Z"/></g>
<g><path style="opacity:0.952" fill="#000000" d="M 587.5,59.5 C 609.499,56.9427 627.999,63.6094 643,79.5C 647.365,85.8993 650.365,92.8993 652,100.5C 651.907,88.1773 651.74,75.8439 651.5,63.5C 661.167,63.5 670.833,63.5 680.5,63.5C 680.5,140.167 680.5,216.833 680.5,293.5C 670.833,293.5 661.167,293.5 651.5,293.5C 651.445,260.82 651.611,228.154 652,195.5C 644.044,223.914 625.211,237.914 595.5,237.5C 564.381,237.859 544.548,223.192 536,193.5C 534.568,187.574 533.568,181.574 533,175.5C 532.333,157.833 532.333,140.167 533,122.5C 533.72,101.976 541.553,84.8094 556.5,71C 566.023,64.6628 576.356,60.8295 587.5,59.5 Z M 597.5,83.5 C 610.822,82.2727 623.155,85.106 634.5,92C 643.46,99.0854 648.96,108.252 651,119.5C 651.667,139.833 651.667,160.167 651,180.5C 639.412,207.212 619.245,217.378 590.5,211C 572.957,204.799 563.457,192.299 562,173.5C 561.333,156.833 561.333,140.167 562,123.5C 563.559,100.786 575.393,87.4529 597.5,83.5 Z"/></g>
<g><path style="opacity:0.955" fill="#000000" d="M 1038.5,59.5 C 1055.47,58.0426 1071.8,60.5426 1087.5,67C 1091.42,68.5403 1094.92,70.7069 1098,73.5C 1099.57,81.8276 1100.07,90.1609 1099.5,98.5C 1082.12,85.9214 1062.78,81.4214 1041.5,85C 1024.03,89.1399 1013.19,99.9733 1009,117.5C 1007.41,136.128 1007.08,154.795 1008,173.5C 1014.36,203.453 1032.86,216.286 1063.5,212C 1077.36,210.235 1090.03,205.402 1101.5,197.5C 1101.67,206.156 1100.84,214.823 1099,223.5C 1078.5,236.088 1056.33,240.255 1032.5,236C 1000.46,229.624 982.629,210.124 979,177.5C 978.333,158.167 978.333,138.833 979,119.5C 983.024,83.643 1002.86,63.643 1038.5,59.5 Z"/></g>
<g><path style="opacity:0.952" fill="#000000" d="M 1604.5,59.5 C 1620.56,58.2665 1636.23,60.0998 1651.5,65C 1672.73,74.941 1683.57,91.7743 1684,115.5C 1684.5,154.832 1684.67,194.165 1684.5,233.5C 1674.83,233.5 1665.17,233.5 1655.5,233.5C 1655.84,221.16 1656.01,208.826 1656,196.5C 1651.25,216.915 1638.75,229.749 1618.5,235C 1602.65,238.678 1586.98,238.012 1571.5,233C 1552.25,223.847 1543.58,208.514 1545.5,187C 1543.87,163.319 1554.2,147.653 1576.5,140C 1582.41,138.022 1588.41,136.355 1594.5,135C 1614.77,131.652 1635.1,128.818 1655.5,126.5C 1656.12,96.7912 1641.46,82.4578 1611.5,83.5C 1590.33,84.6668 1570.67,90.6668 1552.5,101.5C 1552.17,101 1551.83,100.5 1551.5,100C 1552.62,93.2122 1553.46,86.3789 1554,79.5C 1554.27,77.6711 1555.11,76.1711 1556.5,75C 1571.63,66.7266 1587.63,61.56 1604.5,59.5 Z M 1654.5,147.5 C 1655.66,158.326 1655.83,169.326 1655,180.5C 1646.13,202.031 1629.96,212.698 1606.5,212.5C 1581.47,212.632 1570.97,200.299 1575,175.5C 1576.65,169.865 1579.81,165.365 1584.5,162C 1589.53,159.211 1594.87,157.211 1600.5,156C 1618.66,153.251 1636.66,150.417 1654.5,147.5 Z"/></g>
<g><path style="opacity:0.959" fill="#000000" d="M 1932.5,59.5 C 1947.67,58.3082 1962.01,61.1415 1975.5,68C 1989.11,78.7591 1996.27,92.9258 1997,110.5C 1997.5,151.499 1997.67,192.499 1997.5,233.5C 1987.83,233.5 1978.17,233.5 1968.5,233.5C 1968.97,192.799 1968.47,152.132 1967,111.5C 1962.12,92.5405 1949.79,83.2071 1930,83.5C 1907.61,84.5709 1892.61,95.5709 1885,116.5C 1884.5,155.499 1884.33,194.499 1884.5,233.5C 1874.83,233.5 1865.17,233.5 1855.5,233.5C 1855.5,176.833 1855.5,120.167 1855.5,63.5C 1865.17,63.5 1874.83,63.5 1884.5,63.5C 1884.13,75.5065 1883.97,87.5065 1884,99.5C 1891.58,75.7547 1907.75,62.4214 1932.5,59.5 Z"/></g>
<g><path style="opacity:0.959" fill="#000000" d="M 1803.5,60.5 C 1811.63,60.5661 1819.63,61.5661 1827.5,63.5C 1828,72.826 1828.33,82.1594 1828.5,91.5C 1803.17,84.205 1781.67,90.205 1764,109.5C 1760.9,114.269 1758.23,119.269 1756,124.5C 1755.5,160.832 1755.33,197.165 1755.5,233.5C 1745.83,233.5 1736.17,233.5 1726.5,233.5C 1726.5,176.833 1726.5,120.167 1726.5,63.5C 1735.83,63.5 1745.17,63.5 1754.5,63.5C 1754.12,77.5051 1753.95,91.5051 1754,105.5C 1760.31,79.0094 1776.81,64.0094 1803.5,60.5 Z"/></g>
<g><path style="opacity:0.965" fill="#000000" d="M 723.5,63.5 C 732.833,63.5 742.167,63.5 751.5,63.5C 751.333,99.5015 751.5,135.502 752,171.5C 752.109,180.604 754.109,189.271 758,197.5C 765.915,208.539 776.749,213.539 790.5,212.5C 813.562,212.386 828.728,201.386 836,179.5C 836.5,140.835 836.667,102.168 836.5,63.5C 846.167,63.5 855.833,63.5 865.5,63.5C 865.5,120.167 865.5,176.833 865.5,233.5C 855.833,233.5 846.167,233.5 836.5,233.5C 836.667,222.162 836.5,210.828 836,199.5C 826.355,225.432 807.521,238.098 779.5,237.5C 746.437,237.601 727.937,221.268 724,188.5C 723.5,146.835 723.333,105.168 723.5,63.5 Z"/></g>
<g><path style="opacity:0.963" fill="#000000" d="M 910.5,63.5 C 920.167,63.5 929.833,63.5 939.5,63.5C 939.5,120.167 939.5,176.833 939.5,233.5C 929.833,233.5 920.167,233.5 910.5,233.5C 910.5,176.833 910.5,120.167 910.5,63.5 Z"/></g>
<g><path style="opacity:0.947" fill="#000000" d="M 46.5,70.5 C 152.167,70.3333 257.834,70.5 363.5,71C 366.187,72.8749 368.021,75.3749 369,78.5C 369.992,165.557 369.659,252.557 368,339.5C 366.457,341.378 364.624,342.878 362.5,344C 283.167,344.5 203.834,344.667 124.5,344.5C 124.5,337.5 124.5,330.5 124.5,323.5C 199.167,323.5 273.833,323.5 348.5,323.5C 348.5,246.167 348.5,168.833 348.5,91.5C 252.833,91.5 157.167,91.5 61.5,91.5C 61.5,107.167 61.5,122.833 61.5,138.5C 54.4637,139.259 47.7971,141.259 41.5,144.5C 40.3336,122.174 40.1669,99.8408 41,77.5C 41.9383,74.4025 43.7716,72.0691 46.5,70.5 Z"/></g>
<g><path style="opacity:0.979" fill="#000000" d="M 132.5,112.5 C 197.167,112.5 261.833,112.5 326.5,112.5C 326.5,141.167 326.5,169.833 326.5,198.5C 261.833,198.5 197.167,198.5 132.5,198.5C 132.5,169.833 132.5,141.167 132.5,112.5 Z"/></g>
<g><path style="opacity:0.971" fill="#000000" d="M 62.5,150.5 C 81.3057,150.316 94.8057,158.649 103,175.5C 109.975,199.712 102.141,217.212 79.5,228C 61.5155,233.005 46.3488,228.505 34,214.5C 24.0024,198.482 24.0024,182.482 34,166.5C 41.6271,157.608 51.1271,152.275 62.5,150.5 Z"/></g>
<g><path style="opacity:0.979" fill="#000000" d="M 235.5,208.5 C 240.955,207.888 244.288,210.222 245.5,215.5C 240.143,225.712 234.143,235.545 227.5,245C 245.692,247.885 250.859,257.718 243,274.5C 240.137,277.515 236.637,279.349 232.5,280C 192.501,280.5 152.501,280.667 112.5,280.5C 112.5,309.5 112.5,338.5 112.5,367.5C 75.5,367.5 38.5,367.5 1.5,367.5C 1.33335,330.165 1.50001,292.832 2,255.5C 3.92678,250.572 7.42678,247.406 12.5,246C 78.5,245.667 144.5,245.333 210.5,245C 217.667,233.833 224.833,222.667 232,211.5C 233.145,210.364 234.312,209.364 235.5,208.5 Z"/></g>
<g><path style="opacity:0.875" fill="#000000" d="M 682.5,361.5 C 693.17,360.547 703.503,361.88 713.5,365.5C 715.524,368.667 715.857,372 714.5,375.5C 704.608,370.403 694.275,369.236 683.5,372C 676.844,377.953 676.844,383.953 683.5,390C 692.956,393.029 702.289,396.363 711.5,400C 720.465,410.366 720.798,421.033 712.5,432C 704.181,436.996 695.181,438.663 685.5,437C 679.97,436.212 674.637,434.712 669.5,432.5C 668.711,429.354 668.045,426.187 667.5,423C 667.833,422.5 668.167,422 668.5,421.5C 679.236,428.01 690.569,429.51 702.5,426C 708.728,419.953 709.062,413.62 703.5,407C 694.067,403.974 684.734,400.641 675.5,397C 665.968,387.216 665.301,376.883 673.5,366C 676.437,364.199 679.437,362.699 682.5,361.5 Z"/></g>
<g><path style="opacity:0.889" fill="#000000" d="M 1130.5,361.5 C 1158.52,358.352 1171.19,370.852 1168.5,399C 1171.4,429.106 1158.07,441.439 1128.5,436C 1120.23,433.401 1115.07,427.901 1113,419.5C 1111.02,405.842 1111.02,392.175 1113,378.5C 1116.11,369.889 1121.94,364.222 1130.5,361.5 Z M 1138.5,369.5 C 1147.9,369.421 1154.07,373.754 1157,382.5C 1159.24,394.921 1158.9,407.255 1156,419.5C 1149.93,428.377 1141.76,430.877 1131.5,427C 1126.85,424.545 1124.02,420.712 1123,415.5C 1122.33,404.5 1122.33,393.5 1123,382.5C 1125.42,374.729 1130.59,370.396 1138.5,369.5 Z"/></g>
<g><path style="opacity:0.89" fill="#000000" d="M 1302.5,361.5 C 1308.51,361.334 1314.51,361.501 1320.5,362C 1329.46,362.955 1332.96,367.788 1331,376.5C 1322.92,370.535 1314.08,369.035 1304.5,372C 1298.7,375.091 1295.54,379.924 1295,386.5C 1294.33,395.167 1294.33,403.833 1295,412.5C 1298.35,425.875 1306.85,430.708 1320.5,427C 1324.81,426.097 1328.64,424.263 1332,421.5C 1333.67,429.639 1330.51,434.473 1322.5,436C 1311.34,439.102 1301,437.435 1291.5,431C 1289.29,428.079 1287.45,424.912 1286,421.5C 1284.41,407.889 1284.07,394.223 1285,380.5C 1287.28,370.728 1293.11,364.394 1302.5,361.5 Z"/></g>
<g><path style="opacity:0.896" fill="#000000" d="M 532.5,362.5 C 547.5,362.5 562.5,362.5 577.5,362.5C 577.5,365.5 577.5,368.5 577.5,371.5C 565.833,371.5 554.167,371.5 542.5,371.5C 542.5,379.833 542.5,388.167 542.5,396.5C 553.833,396.5 565.167,396.5 576.5,396.5C 576.5,399.5 576.5,402.5 576.5,405.5C 565.167,405.5 553.833,405.5 542.5,405.5C 542.5,415.833 542.5,426.167 542.5,436.5C 539.167,436.5 535.833,436.5 532.5,436.5C 532.5,411.833 532.5,387.167 532.5,362.5 Z"/></g>
<g><path style="opacity:0.929" fill="#000000" d="M 589.5,362.5 C 592.833,362.5 596.167,362.5 599.5,362.5C 599.5,387.167 599.5,411.833 599.5,436.5C 596.167,436.5 592.833,436.5 589.5,436.5C 589.5,411.833 589.5,387.167 589.5,362.5 Z"/></g>
<g><path style="opacity:0.917" fill="#000000" d="M 616.5,362.5 C 619.833,362.5 623.167,362.5 626.5,362.5C 626.5,384.167 626.5,405.833 626.5,427.5C 637.833,427.5 649.167,427.5 660.5,427.5C 660.5,430.5 660.5,433.5 660.5,436.5C 645.833,436.5 631.167,436.5 616.5,436.5C 616.5,411.833 616.5,387.167 616.5,362.5 Z"/></g>
<g><path style="opacity:0.891" fill="#000000" d="M 757.5,362.5 C 761.167,362.5 764.833,362.5 768.5,362.5C 768.333,380.836 768.5,399.17 769,417.5C 771.366,425.358 776.699,429.025 785,428.5C 791.902,428.554 796.902,425.554 800,419.5C 801.449,400.555 801.949,381.555 801.5,362.5C 804.833,362.5 808.167,362.5 811.5,362.5C 811.667,381.503 811.5,400.503 811,419.5C 806.937,432.296 798.103,438.296 784.5,437.5C 769.59,437.981 760.757,430.981 758,416.5C 757.5,398.503 757.333,380.503 757.5,362.5 Z"/></g>
<g><path style="opacity:0.909" fill="#000000" d="M 827.5,362.5 C 840.561,362.078 853.561,362.578 866.5,364C 872.731,365.963 876.564,370.13 878,376.5C 878.667,383.5 878.667,390.5 878,397.5C 876.167,404.667 871.667,409.167 864.5,411C 855.506,411.5 846.506,411.666 837.5,411.5C 837.5,419.833 837.5,428.167 837.5,436.5C 834.167,436.5 830.833,436.5 827.5,436.5C 827.5,411.833 827.5,387.167 827.5,362.5 Z M 837.5,371.5 C 846.25,371.09 854.916,371.59 863.5,373C 867.338,376.844 869.004,381.511 868.5,387C 869.539,396.296 865.539,401.629 856.5,403C 850.175,403.5 843.842,403.666 837.5,403.5C 837.5,392.833 837.5,382.167 837.5,371.5 Z"/></g>
<g><path style="opacity:0.896" fill="#000000" d="M 891.5,362.5 C 904.171,362.333 916.838,362.5 929.5,363C 936.882,364.049 941.382,368.216 943,375.5C 944.895,383.136 943.061,389.636 937.5,395C 935.913,395.862 934.246,396.529 932.5,397C 941.715,399.411 945.715,405.411 944.5,415C 945.175,428.325 938.842,435.325 925.5,436C 914.172,436.5 902.838,436.667 891.5,436.5C 891.5,411.833 891.5,387.167 891.5,362.5 Z M 901.5,371.5 C 909.84,371.334 918.173,371.5 926.5,372C 931.005,374.012 933.338,377.512 933.5,382.5C 933.013,387.327 930.68,390.827 926.5,393C 918.219,394.287 909.886,394.787 901.5,394.5C 901.5,386.833 901.5,379.167 901.5,371.5 Z M 901.5,402.5 C 910.582,402.086 919.582,402.586 928.5,404C 932.424,406.343 934.424,409.843 934.5,414.5C 934.66,419.556 932.66,423.389 928.5,426C 919.582,427.414 910.582,427.914 901.5,427.5C 901.5,419.167 901.5,410.833 901.5,402.5 Z"/></g>
<g><path style="opacity:0.873" fill="#000000" d="M 984.5,362.5 C 997.561,362.078 1010.56,362.578 1023.5,364C 1029.31,365.807 1033.14,369.64 1035,375.5C 1037.17,384.266 1036.84,392.933 1034,401.5C 1031.28,406.551 1027.11,409.718 1021.5,411C 1012.84,411.5 1004.17,411.666 995.5,411.5C 995.5,419.833 995.5,428.167 995.5,436.5C 991.833,436.5 988.167,436.5 984.5,436.5C 984.5,411.833 984.5,387.167 984.5,362.5 Z M 995.5,371.5 C 1003.92,371.094 1012.25,371.594 1020.5,373C 1024.73,376.679 1026.39,381.346 1025.5,387C 1026.77,396.383 1022.77,401.717 1013.5,403C 1007.51,403.499 1001.51,403.666 995.5,403.5C 995.5,392.833 995.5,382.167 995.5,371.5 Z"/></g>
<g><path style="opacity:0.886" fill="#000000" d="M 1048.5,362.5 C 1060.84,362.333 1073.17,362.5 1085.5,363C 1093.22,364.386 1098.05,368.886 1100,376.5C 1101.01,383.036 1100.34,389.369 1098,395.5C 1095.77,398.364 1092.94,400.364 1089.5,401.5C 1095.35,405.185 1098.52,410.518 1099,417.5C 1100.16,423.798 1101,430.131 1101.5,436.5C 1097.89,436.789 1094.39,436.456 1091,435.5C 1090.19,429.136 1089.19,422.803 1088,416.5C 1087,412.32 1084.5,409.486 1080.5,408C 1073.17,407.5 1065.84,407.334 1058.5,407.5C 1058.5,417.167 1058.5,426.833 1058.5,436.5C 1055.17,436.5 1051.83,436.5 1048.5,436.5C 1048.5,411.833 1048.5,387.167 1048.5,362.5 Z M 1058.5,371.5 C 1066.51,371.334 1074.51,371.5 1082.5,372C 1087.67,374.65 1090.34,378.983 1090.5,385C 1090.36,389.952 1088.36,393.952 1084.5,397C 1075.92,398.41 1067.25,398.91 1058.5,398.5C 1058.5,389.5 1058.5,380.5 1058.5,371.5 Z"/></g>
<g><path style="opacity:0.912" fill="#000000" d="M 1201.5,362.5 C 1204.83,362.5 1208.17,362.5 1211.5,362.5C 1211.67,382.836 1211.5,403.169 1211,423.5C 1207.91,433.472 1201.08,438.139 1190.5,437.5C 1187.22,436.746 1183.89,436.246 1180.5,436C 1179.23,435.691 1178.07,435.191 1177,434.5C 1176.05,431.568 1175.55,428.568 1175.5,425.5C 1181.7,427.349 1188.04,427.849 1194.5,427C 1196.62,425.878 1198.46,424.378 1200,422.5C 1201.45,402.554 1201.95,382.554 1201.5,362.5 Z"/></g>
<g><path style="opacity:0.907" fill="#000000" d="M 1227.5,362.5 C 1242.83,362.5 1258.17,362.5 1273.5,362.5C 1273.5,365.5 1273.5,368.5 1273.5,371.5C 1261.5,371.5 1249.5,371.5 1237.5,371.5C 1237.5,379.167 1237.5,386.833 1237.5,394.5C 1249.17,394.5 1260.83,394.5 1272.5,394.5C 1272.5,397.167 1272.5,399.833 1272.5,402.5C 1260.83,402.5 1249.17,402.5 1237.5,402.5C 1237.5,410.833 1237.5,419.167 1237.5,427.5C 1249.83,427.5 1262.17,427.5 1274.5,427.5C 1274.5,430.5 1274.5,433.5 1274.5,436.5C 1258.83,436.5 1243.17,436.5 1227.5,436.5C 1227.5,411.833 1227.5,387.167 1227.5,362.5 Z"/></g>
<g><path style="opacity:0.858" fill="#000000" d="M 1339.5,362.5 C 1357.5,362.5 1375.5,362.5 1393.5,362.5C 1393.5,365.5 1393.5,368.5 1393.5,371.5C 1386.17,371.5 1378.83,371.5 1371.5,371.5C 1371.5,393.167 1371.5,414.833 1371.5,436.5C 1367.83,436.5 1364.17,436.5 1360.5,436.5C 1360.5,414.833 1360.5,393.167 1360.5,371.5C 1353.5,371.5 1346.5,371.5 1339.5,371.5C 1339.5,368.5 1339.5,365.5 1339.5,362.5 Z"/></g>
</svg>
